<?xml version="1.0" standalone="no"?>
<!DOCTYPE svg PUBLIC "-//W3C//DTD SVG 20010904//EN"
 "http://www.w3.org/TR/2001/REC-SVG-20010904/DTD/svg10.dtd">
<svg version="1.0" xmlns="http://www.w3.org/2000/svg"
 width="329.000000pt" height="329.000000pt" viewBox="0 0 329.000000 329.000000"
 preserveAspectRatio="xMidYMid meet">
<metadata>
Created by potrace 1.11, written by Peter Selinger 2001-2013
</metadata>
<g transform="translate(0.000000,329.000000) scale(0.100000,-0.100000)"
fill="#000000" stroke="none">
<path d="M1037 2943 c3 -7 -2 -13 -11 -13 -9 0 -16 -4 -16 -10 0 -5 -6 -9 -12
-7 -7 1 -12 -4 -10 -10 1 -7 -4 -12 -10 -10 -7 1 -12 -4 -10 -11 1 -8 -2 -11
-7 -8 -13 8 -82 -64 -74 -77 3 -5 1 -7 -4 -4 -11 7 -70 -42 -66 -55 2 -4 -1
-8 -7 -8 -14 0 -80 -66 -73 -74 4 -3 1 -6 -5 -6 -13 0 -132 -118 -132 -132 0
-5 -3 -7 -7 -5 -10 6 -104 -89 -96 -97 4 -3 -1 -6 -11 -6 -9 0 -14 -4 -11 -10
3 -5 -1 -10 -10 -10 -11 0 -15 -5 -11 -16 3 -8 2 -12 -4 -9 -11 7 -45 -29 -45
-48 0 -7 -8 -11 -18 -9 -12 2 -15 -2 -10 -14 4 -11 3 -15 -5 -10 -6 3 -13 2
-17 -4 -3 -5 0 -10 7 -10 8 0 9 -3 3 -8 -5 -4 -17 -16 -25 -26 -12 -16 -12
-18 -1 -11 11 6 13 4 8 -8 -3 -10 -2 -17 4 -17 6 0 8 -3 6 -7 -2 -5 10 -19 27
-32 l31 -25 -25 30 -25 29 32 -29 c18 -16 30 -34 26 -39 -3 -6 -1 -7 5 -3 6 3
24 -8 41 -25 18 -17 36 -27 42 -23 7 4 9 3 5 -4 -9 -15 33 -52 53 -45 14 4 14
3 1 -6 -13 -10 -8 -15 12 -12 5 0 7 -5 5 -12 -1 -6 4 -11 11 -10 6 2 12 -3 12
-11 0 -7 8 -20 17 -27 17 -13 17 -13 3 6 -14 20 -14 20 7 1 12 -10 21 -23 20
-30 -1 -6 4 -10 12 -8 7 1 23 -9 36 -24 15 -17 28 -24 36 -19 8 5 11 5 7 1 -9
-11 23 -46 35 -39 6 3 8 2 4 -3 -8 -13 18 -45 34 -42 12 3 14 -7 10 -44 0 -6
-4 -8 -8 -5 -3 4 -16 1 -27 -6 -12 -8 -34 -17 -50 -21 -15 -4 -26 -10 -22 -13
3 -3 -3 -12 -14 -20 -22 -15 -28 -39 -7 -27 9 6 9 4 1 -7 -17 -22 -14 -56 5
-73 21 -19 17 -70 -5 -62 -15 6 -38 -27 -27 -38 3 -3 1 -6 -6 -6 -7 0 -9 -5
-5 -12 6 -10 5 -10 -8 -1 -8 7 -18 10 -21 6 -9 -9 -9 -23 1 -22 19 3 32 -2 32
-12 0 -8 -4 -9 -13 0 -17 14 -27 4 -27 -26 0 -18 -6 -23 -24 -23 -23 0 -25 -3
-21 -37 3 -32 1 -35 -9 -21 -17 23 -30 10 -34 -32 -1 -19 -8 -39 -14 -45 -8
-7 -9 -5 -5 7 3 9 0 18 -6 21 -8 3 -13 -7 -14 -27 -2 -49 -11 -79 -30 -95 -15
-14 -15 -13 1 13 10 16 13 25 7 22 -6 -4 -11 -2 -11 5 0 7 -3 10 -6 7 -6 -7
-17 -73 -16 -100 1 -10 -3 -18 -9 -18 -5 0 -8 3 -7 7 2 5 0 9 -4 11 -5 1 -8
-1 -9 -5 0 -5 -6 -15 -12 -23 -9 -12 -9 -13 3 -3 8 7 19 9 29 4 9 -5 54 -7
101 -6 107 4 100 2 94 20 -4 8 -1 15 6 15 6 0 9 -4 6 -8 -8 -13 11 -35 24 -27
9 6 9 9 0 15 -8 5 -7 9 5 13 9 4 13 3 10 -3 -3 -6 -1 -10 5 -10 6 0 9 -4 6 -8
-6 -10 95 -9 111 1 6 4 14 3 17 -2 6 -9 48 -8 94 3 12 3 20 1 18 -3 -3 -4 8
-8 24 -7 26 1 30 5 30 29 0 15 5 27 11 27 5 0 7 -5 4 -11 -4 -6 2 -5 14 3 22
13 28 28 12 28 -5 0 -12 -6 -14 -12 -4 -10 -6 -10 -6 0 -1 7 -6 10 -13 6 -7
-4 -8 -3 -4 5 4 6 10 9 14 7 4 -2 16 2 27 10 13 10 15 14 4 14 -12 0 -12 2 1
10 8 5 11 10 5 11 -5 0 1 4 15 8 19 5 24 13 22 30 -3 16 0 21 8 16 9 -5 10 -1
6 16 -7 23 -7 23 8 5 9 -11 16 -16 16 -12 0 5 8 2 18 -5 14 -11 15 -11 5 1
-17 19 -16 40 2 40 9 0 12 -6 9 -17 -5 -17 -5 -17 9 -1 11 14 16 15 27 5 7 -7
10 -7 7 -1 -4 7 13 10 51 9 32 0 55 -5 53 -10 -2 -6 -6 -16 -8 -22 -3 -7 -10
-10 -15 -7 -6 4 -6 9 2 14 8 5 8 9 -3 13 -8 3 -23 -3 -33 -14 -10 -11 -12 -19
-6 -19 7 0 12 5 12 11 0 6 7 4 15 -5 9 -8 22 -13 30 -10 8 4 15 1 15 -5 0 -6
-5 -11 -11 -11 -5 0 -7 -4 -4 -10 4 -6 -10 -9 -36 -8 -25 1 -44 -3 -47 -10 -2
-7 -8 -12 -13 -12 -6 0 -8 4 -5 8 3 5 -1 9 -9 9 -18 0 -19 -9 -2 -26 9 -11 9
-13 0 -7 -12 7 -18 -12 -14 -37 1 -5 -3 -6 -8 -3 -5 4 -12 0 -15 -6 -3 -7 -3
-3 -1 9 3 12 1 24 -5 28 -6 4 -10 -5 -10 -22 0 -16 -5 -34 -11 -40 -8 -8 -8
-13 0 -17 6 -4 11 -18 11 -32 0 -19 -5 -24 -25 -24 -14 0 -24 -3 -24 -7 3 -20
-2 -34 -11 -28 -5 3 -10 1 -10 -4 0 -6 -4 -11 -10 -11 -5 0 -7 8 -4 18 3 9 -1
6 -9 -7 -9 -16 -17 -20 -21 -12 -10 15 -26 4 -26 -18 0 -10 -7 -18 -15 -19 -8
-1 -22 -3 -30 -4 -9 -1 -14 -7 -11 -14 3 -8 0 -11 -9 -7 -8 3 -12 10 -8 16 3
6 1 7 -6 3 -6 -4 -9 -16 -6 -26 6 -20 -31 -36 -39 -16 -2 6 -5 0 -5 -14 -2
-50 -5 -79 -9 -75 -2 2 -17 -1 -34 -7 -22 -8 -26 -13 -16 -19 11 -8 11 -11 -2
-18 -8 -5 -18 -7 -22 -5 -4 3 -8 -9 -8 -26 0 -22 -4 -29 -12 -24 -10 6 -10 5
-1 -8 15 -17 8 -28 -19 -28 -17 0 -22 -10 -19 -39 2 -7 -4 -11 -11 -8 -7 2
-12 9 -11 14 1 5 -5 10 -12 10 -11 0 -12 -4 -4 -14 6 -7 7 -13 2 -13 -5 0 -8
-26 -7 -58 1 -70 -2 -81 -25 -75 -9 2 -24 -4 -32 -13 -9 -11 -9 -15 -2 -10 8
4 13 2 13 -4 0 -6 5 -8 12 -4 6 4 8 3 5 -3 -4 -6 -18 -8 -32 -5 -26 4 -26 4
-25 -64 1 -124 -4 -174 -14 -164 -13 13 -26 13 -26 -2 0 -6 3 -8 7 -5 8 9 33
-25 26 -36 -3 -5 -11 0 -19 10 -13 16 -13 15 -3 -9 7 -15 16 -25 20 -22 5 3 6
-2 3 -11 -5 -12 -10 -13 -17 -6 -18 18 -24 13 -25 -19 0 -17 3 -30 8 -30 5 0
7 -7 4 -15 -4 -8 -1 -15 6 -15 6 0 9 4 5 9 -6 10 33 27 50 22 6 -1 6 1 2 6 -5
4 -13 8 -18 8 -5 0 -9 5 -9 10 0 6 47 11 116 13 99 2 115 5 110 18 -4 10 -2
13 6 8 8 -5 9 -2 4 11 -5 14 -4 16 8 6 11 -9 15 -8 21 6 5 10 9 23 9 28 1 6
32 10 74 10 39 0 72 1 72 3 0 1 -10 7 -22 12 -19 7 -19 9 -5 9 10 1 16 5 13
10 -3 5 1 11 9 15 8 3 17 1 20 -5 4 -5 11 -6 18 -2 6 4 30 7 54 8 24 0 42 5
41 10 -2 6 -6 9 -10 8 -4 -2 -5 4 -2 12 8 19 14 19 30 -3 13 -16 14 -16 8 1
-5 13 0 17 17 18 13 1 27 1 32 0 4 -1 5 9 2 22 -5 18 0 25 22 34 18 8 20 10 6
7 -16 -4 -23 -1 -23 9 0 8 9 14 22 13 11 0 23 5 26 13 3 8 0 11 -7 7 -7 -5 -9
-1 -5 9 8 20 29 13 28 -8 -1 -9 2 -14 8 -11 5 3 7 11 5 17 -5 17 15 35 35 29
10 -2 18 1 18 7 0 7 -5 9 -12 5 -10 -6 -10 -4 -2 7 6 8 14 27 18 42 5 21 10
26 19 19 8 -7 16 -6 25 4 7 8 9 14 4 14 -5 0 -9 7 -9 15 0 8 5 15 11 14 28 -3
36 3 36 26 0 15 5 25 13 24 24 -3 34 1 34 16 0 8 -5 11 -10 8 -6 -3 -7 -1 -3
5 4 7 14 12 22 12 8 0 14 6 14 13 0 8 4 7 11 -3 9 -13 10 -13 6 1 -7 21 11 39
31 31 12 -4 14 -1 9 13 -6 15 -5 16 7 6 12 -10 13 -9 9 8 -4 16 -1 21 16 21
16 0 21 6 21 25 0 25 18 30 32 10 5 -6 8 -5 8 3 0 6 -1 13 -2 15 -1 1 4 12 10
24 14 26 42 21 42 -8 0 -10 6 -19 13 -19 9 0 9 -2 0 -8 -7 -5 -11 -24 -10 -45
3 -32 0 -38 -20 -43 -15 -4 -22 -12 -19 -20 3 -9 0 -11 -11 -7 -11 4 -14 2 -9
-5 5 -8 -1 -12 -16 -13 -46 -2 -51 -4 -54 -21 -1 -11 3 -15 13 -11 12 5 12 7
1 15 -11 8 -10 9 1 6 8 -2 15 -11 17 -20 1 -10 -5 -14 -22 -12 -13 1 -27 -2
-30 -7 -3 -6 -11 -5 -20 2 -12 10 -14 -10 -12 -134 1 -103 4 -144 12 -140 6 3
5 0 -1 -8 -18 -19 -16 -34 3 -18 8 7 13 21 11 31 -3 10 -1 16 4 13 5 -4 8 -17
7 -30 -1 -13 -5 -22 -9 -19 -9 5 -30 -21 -22 -29 3 -4 13 -1 22 6 14 11 14 10
2 -5 -7 -10 -17 -16 -21 -13 -5 3 -8 -39 -8 -94 l0 -99 31 2 c26 3 32 7 30 25
-2 18 2 21 38 21 32 0 40 3 36 14 -7 19 12 33 41 30 12 0 22 3 22 7 0 5 -5 9
-11 9 -5 0 -7 5 -3 11 4 8 11 4 19 -11 8 -15 15 -19 19 -11 4 6 3 11 -2 11 -5
0 -9 6 -9 14 0 7 10 13 21 13 32 0 60 14 46 23 -7 4 -9 13 -5 19 5 9 10 9 20
1 10 -9 16 -7 23 7 5 10 7 25 5 33 -4 12 -3 12 5 1 7 -9 12 -10 16 -2 4 6 17
11 30 11 30 0 38 10 23 28 -9 13 -9 14 1 8 6 -4 12 -3 12 2 0 5 10 9 23 8 17
-1 21 4 19 21 -2 18 1 21 17 18 22 -4 42 20 34 41 -2 7 5 10 22 6 21 -4 24 -1
18 14 -6 18 -5 18 18 -1 l24 -20 -15 20 c-8 11 -19 23 -25 27 -6 4 -2 8 8 8 9
0 17 -5 17 -11 0 -6 7 -4 15 4 8 8 12 24 10 35 -2 14 1 19 10 16 7 -3 12 -15
10 -26 -3 -11 -1 -17 3 -14 4 4 7 11 8 14 2 18 17 42 26 42 5 0 6 -4 3 -10 -3
-6 1 -7 9 -4 11 4 14 14 10 30 -4 16 -2 24 6 24 9 0 10 3 1 13 -6 8 -8 17 -4
20 3 4 1 13 -5 20 -7 8 -9 17 -5 21 15 15 11 38 -5 32 -15 -5 -15 -4 -2 6 17
15 21 123 6 147 -6 10 -6 12 3 7 8 -5 11 2 11 21 -1 52 3 63 22 63 15 0 18 8
18 45 0 40 2 45 23 45 14 0 23 6 24 18 2 29 9 51 18 59 4 4 6 4 3 -2 -3 -5 0
-16 8 -23 12 -11 13 -9 11 10 -5 29 45 78 73 73 16 -3 20 1 20 21 0 13 3 23 8
23 26 -4 42 3 42 21 0 13 7 20 20 21 11 1 30 2 42 3 12 0 23 7 26 15 3 9 0 11
-9 5 -12 -7 -12 -5 0 9 7 9 22 17 33 17 10 0 17 4 14 9 -3 5 1 14 9 21 12 10
13 16 3 29 -10 13 -10 14 2 4 15 -14 41 -17 39 -5 -5 29 2 40 23 34 18 -4 20
-2 16 16 -4 15 0 23 13 27 10 4 23 4 28 1 5 -4 8 5 6 19 -2 20 2 25 21 25 19
0 24 5 24 25 0 19 5 25 18 23 9 -2 16 3 14 10 -1 6 2 12 8 12 6 0 9 6 8 13 -2
6 6 12 17 11 15 -1 21 6 23 24 1 14 8 32 15 40 9 13 9 14 0 8 -8 -4 -13 -2
-13 5 0 6 8 9 20 6 21 -5 41 18 33 39 -2 6 5 14 17 17 14 4 20 13 20 34 0 15
5 35 10 43 8 12 10 12 10 -5 0 -19 1 -18 15 2 9 12 15 26 14 30 -4 21 2 32 15
27 18 -7 25 4 28 49 2 31 6 37 25 37 19 0 21 4 18 30 -2 16 1 32 6 36 5 3 6
10 3 16 -5 7 -1 9 9 5 21 -8 27 2 29 52 1 39 9 47 41 42 4 -1 3 8 -3 19 -6 11
-7 20 -2 20 4 0 8 15 7 33 -1 38 4 59 14 52 4 -2 8 2 8 9 0 8 -5 13 -11 12 -6
-2 -8 -1 -4 1 4 2 5 10 2 17 -3 8 2 16 12 20 14 5 15 4 5 -8 -9 -11 -8 -15 6
-20 10 -4 14 -4 11 0 -4 4 -3 15 3 25 7 13 6 19 -1 19 -7 0 -8 6 -2 18 5 9 8
54 8 100 -1 45 3 82 8 82 4 0 6 -7 2 -15 -3 -8 -2 -15 3 -15 4 0 8 -7 8 -15 0
-8 -4 -15 -9 -15 -5 0 -6 -4 -3 -10 3 -5 14 -10 23 -10 13 0 14 2 3 9 -9 6
-10 11 -2 15 6 4 8 13 4 19 -12 19 -12 37 -2 37 6 0 7 5 4 10 -4 6 -10 8 -14
6 -4 -3 -13 -1 -21 5 -12 7 -12 9 -1 9 11 0 11 3 0 17 -8 9 -9 14 -2 10 19
-12 40 2 38 26 -2 12 -7 21 -13 20 -6 -2 -9 4 -6 12 4 8 11 12 17 8 6 -3 7 -1
3 5 -4 7 -16 12 -27 12 -10 0 -19 5 -19 11 0 6 6 9 14 6 19 -8 42 18 25 29 -7
4 -9 3 -5 -4 3 -6 2 -13 -3 -16 -13 -8 -34 21 -28 39 4 8 2 17 -3 20 -6 4 -10
0 -10 -7 0 -10 -2 -10 -9 1 -5 7 -25 14 -45 15 -32 1 -34 3 -19 14 10 7 24 10
32 7 12 -5 12 -3 0 11 -8 10 -15 12 -17 5 -2 -6 -8 -11 -13 -11 -6 0 -8 4 -5
8 2 4 -4 9 -16 9 -14 1 -18 -3 -14 -15 6 -15 5 -15 -7 0 -8 10 -18 14 -23 10
-4 -4 -3 0 3 8 8 11 9 20 1 30 -9 13 -9 13 -5 0 2 -8 -2 -22 -11 -29 -13 -13
-14 -11 -9 15 3 16 4 23 1 16 -5 -10 -9 -10 -22 0 -12 10 -14 10 -8 1 4 -7 2
-13 -3 -13 -6 0 -11 6 -11 13 0 9 -3 8 -9 -2 -6 -9 -10 -10 -14 -2 -3 7 -5 7
-3 -1 2 -7 14 -13 28 -13 13 1 25 -5 25 -12 0 -8 -6 -9 -15 -4 -8 5 -23 6 -33
4 -15 -4 -19 0 -19 18 0 19 -2 21 -9 9 -6 -8 -8 -17 -5 -21 5 -10 -15 -23 -23
-15 -3 3 0 12 7 21 7 9 10 18 6 22 -3 3 -6 0 -6 -8 0 -12 -2 -11 -11 1 -9 13
-10 12 -5 -2 3 -10 1 -18 -5 -18 -6 0 -7 -5 -3 -12 5 -7 3 -8 -5 -4 -7 5 -10
14 -7 22 3 7 1 16 -3 19 -5 3 -8 -8 -7 -24 2 -29 2 -29 -23 -12 -14 9 -22 11
-18 5 4 -7 0 -17 -8 -24 -12 -10 -13 -7 -9 14 l4 25 -26 -24 c-14 -13 -24 -28
-21 -32 3 -4 -10 -9 -29 -10 -20 -1 -34 3 -34 10 0 9 -3 9 -8 0 -5 -8 -35 -14
-75 -15 -41 -1 -62 -5 -54 -11 9 -7 9 -10 -1 -14 -6 -2 -10 -8 -7 -12 2 -4
-15 -7 -38 -6 -48 1 -67 -3 -67 -17 0 -5 5 -6 10 -3 6 3 10 0 10 -7 0 -8 -10
-15 -22 -16 -13 -1 -41 -3 -63 -4 -29 -2 -41 -8 -43 -22 -3 -11 0 -16 7 -11 6
3 9 10 7 14 -3 4 1 8 8 8 7 0 13 -6 13 -13 0 -7 -4 -11 -8 -8 -4 2 -10 0 -13
-5 -3 -5 -19 -8 -36 -7 -19 1 -30 -3 -30 -11 0 -7 -5 -13 -11 -13 -5 0 -8 4
-5 8 3 5 -1 9 -8 9 -7 0 -13 -6 -13 -13 0 -7 3 -11 7 -9 3 2 12 0 18 -4 8 -5
-1 -8 -23 -9 -19 -1 -44 -6 -54 -12 -26 -13 -34 -13 -25 2 4 7 3 8 -5 4 -16
-10 -2 -29 16 -22 8 4 13 1 11 -5 -3 -10 -29 -17 -75 -21 -18 -2 -16 -15 3
-26 12 -7 9 -9 -15 -10 -33 -1 -60 -20 -54 -38 2 -6 -7 -10 -19 -10 -13 1 -23
-5 -24 -14 -2 -31 -5 -35 -14 -20 -9 13 -11 13 -19 0 -5 -8 -7 -19 -4 -25 3
-5 0 -4 -8 3 -14 13 -40 16 -38 5 5 -31 -2 -45 -20 -40 -12 3 -22 -1 -25 -10
-4 -9 -2 -12 7 -7 8 5 7 2 -2 -9 -7 -9 -22 -17 -32 -17 -14 0 -19 -7 -19 -26
0 -24 -2 -25 -17 -13 -14 12 -16 12 -8 0 6 -11 4 -13 -9 -8 -14 5 -17 3 -12
-8 3 -8 0 -15 -7 -15 -8 0 -7 -4 3 -11 12 -8 8 -9 -15 -7 -25 3 -30 0 -30 -21
0 -13 -7 -26 -15 -29 -12 -4 -13 -2 -2 9 15 16 16 33 0 23 -7 -5 -8 -3 -2 7
10 17 15 38 15 62 0 9 5 15 11 11 6 -4 6 1 -1 14 -7 14 -8 23 -1 27 5 3 10 11
10 16 0 6 -5 7 -11 3 -8 -4 -8 -1 -1 13 7 12 7 25 1 34 -13 20 -11 31 4 23 6
-4 3 2 -7 14 -13 15 -15 22 -6 22 9 0 8 6 -5 20 -10 11 -15 23 -12 27 4 4 -3
18 -15 31 -13 14 -16 22 -8 18 12 -6 12 -5 -1 6 -9 7 -14 19 -12 26 3 7 -1 10
-11 6 -11 -4 -16 0 -16 12 0 16 -2 17 -10 4 -9 -14 -15 -6 -10 15 1 6 -2 7 -6
3 -4 -4 -14 -2 -22 5 -13 9 -14 9 -8 0 6 -12 -11 -18 -36 -14 -5 0 -8 -6 -8
-14 0 -9 -7 -18 -15 -21 -8 -4 -13 -10 -10 -14 3 -5 -3 -13 -12 -19 -14 -8
-15 -11 -3 -11 12 -1 10 -5 -5 -18 -11 -9 -20 -25 -20 -34 0 -10 -3 -18 -7
-18 -5 0 -16 0 -25 0 -9 0 -14 3 -10 6 3 4 -4 15 -16 26 -12 11 -16 16 -8 12
9 -5 8 2 -5 19 -10 15 -25 27 -32 27 -7 0 -11 4 -8 9 3 5 -1 11 -9 15 -8 3
-15 13 -15 21 0 9 -4 13 -10 10 -6 -3 -10 4 -10 17 0 18 -2 20 -10 8 -8 -12
-10 -10 -10 8 0 15 -4 21 -12 16 -7 -5 -9 -2 -5 9 4 12 2 14 -10 10 -13 -5
-15 -2 -10 11 5 14 3 17 -8 12 -8 -3 -14 -2 -14 2 4 22 -2 42 -11 37 -5 -3
-10 -2 -10 3 0 5 -21 31 -47 57 -27 26 -41 44 -33 40 9 -5 6 1 -5 13 -11 12
-31 35 -45 52 -14 18 -33 41 -42 52 -10 11 -16 23 -14 27 2 3 -13 6 -34 6 -26
0 -36 -4 -33 -12z m2216 -328 c-3 -9 -8 -14 -10 -11 -3 3 -2 9 2 15 9 16 15
13 8 -4z m18 -28 c-6 -8 -9 -17 -6 -21 3 -3 -1 -1 -7 4 -10 9 -10 13 2 20 21
13 24 12 11 -3z m-101 -462 c0 -8 -4 -15 -10 -15 -5 0 -7 7 -4 15 4 8 8 15 10
15 2 0 4 -7 4 -15z m-123 -272 c0 -9 -4 -10 -14 -2 -7 6 -13 12 -13 14 0 1 6
2 13 2 8 0 14 -6 14 -14z m-179 -264 c-2 -6 -8 -10 -13 -10 -5 0 -11 4 -13 10
-2 6 4 11 13 11 9 0 15 -5 13 -11z m-48 -39 c0 -5 -8 -10 -17 -10 -15 0 -16 2
-3 10 19 12 20 12 20 0z m-47 -53 c3 -8 -1 -14 -8 -14 -7 0 -11 6 -8 14 3 7 6
13 8 13 2 0 5 -6 8 -13z m-2198 -197 c3 -6 -1 -7 -9 -4 -18 7 -21 14 -7 14 6
0 13 -4 16 -10z m490 -69 c3 -5 2 -12 -3 -15 -5 -3 -9 1 -9 9 0 17 3 19 12 6z
m-340 -130 c3 -5 0 -13 -6 -17 -7 -4 -9 -3 -5 4 3 5 0 13 -6 15 -9 4 -10 6 -1
6 6 1 14 -3 18 -8z m1498 -146 c-3 -9 -8 -14 -10 -11 -3 3 -2 9 2 15 9 16 15
13 8 -4z m-486 -197 c-3 -8 -6 -5 -6 6 -1 11 2 17 5 13 3 -3 4 -12 1 -19z
m-227 -62 c0 -2 -8 -10 -17 -17 -16 -13 -17 -12 -4 4 13 16 21 21 21 13z m-49
-63 c13 -16 12 -17 -3 -4 -17 13 -22 21 -14 21 2 0 10 -8 17 -17z m103 -241
c3 -5 -1 -9 -9 -9 -8 0 -12 4 -9 9 3 4 7 8 9 8 2 0 6 -4 9 -8z m-938 -30 c1
-15 -1 -21 -3 -14 -3 6 -8 10 -13 7 -4 -3 -6 4 -3 15 8 29 18 25 19 -8z m-7
-38 c4 3 8 -1 8 -9 0 -8 -4 -15 -9 -15 -4 0 -8 2 -8 4 0 2 -2 10 -3 18 -2 7
-2 10 0 5 3 -4 8 -5 12 -3z m575 8 c3 -5 -1 -9 -9 -9 -8 0 -12 4 -9 9 3 4 7 8
9 8 2 0 6 -4 9 -8z m-88 -58 c1 -9 0 -13 -4 -10 -3 4 -7 14 -8 22 -1 9 0 13 4
10 3 -4 7 -14 8 -22z m-535 -181 c13 -16 12 -17 -3 -4 -17 13 -22 21 -14 21 2
0 10 -8 17 -17z m1019 -3 c0 -5 -2 -10 -4 -10 -3 0 -8 5 -11 10 -3 6 -1 10 4
10 6 0 11 -4 11 -10z"/>
<path d="M2877 2809 c7 -7 15 -10 18 -7 3 3 -2 9 -12 12 -14 6 -15 5 -6 -5z"/>
<path d="M2797 2773 c-4 -3 -7 -11 -7 -17 0 -6 5 -5 12 2 6 6 9 14 7 17 -3 3
-9 2 -12 -2z"/>
<path d="M2766 2753 c-6 -14 -5 -15 5 -6 7 7 10 15 7 18 -3 3 -9 -2 -12 -12z"/>
<path d="M2476 2671 c-3 -5 1 -11 9 -14 9 -4 12 -1 8 9 -6 16 -10 17 -17 5z"/>
<path d="M3267 2536 c-4 -10 -1 -13 8 -9 8 3 12 9 9 14 -7 12 -11 11 -17 -5z"/>
<path d="M2036 2411 c-3 -5 1 -11 9 -14 9 -4 12 -1 8 9 -6 16 -10 17 -17 5z"/>
<path d="M3270 2380 c0 -5 5 -10 11 -10 5 0 7 5 4 10 -3 6 -8 10 -11 10 -2 0
-4 -4 -4 -10z"/>
<path d="M1799 2213 c-13 -17 -13 -17 6 -3 11 8 22 16 24 17 2 2 0 3 -6 3 -6
0 -17 -8 -24 -17z"/>
<path d="M597 1399 c7 -7 15 -10 18 -7 3 3 -2 9 -12 12 -14 6 -15 5 -6 -5z"/>
<path d="M1215 1270 c-3 -5 -1 -10 4 -10 6 0 11 5 11 10 0 6 -2 10 -4 10 -3 0
-8 -4 -11 -10z"/>
<path d="M1170 1256 c0 -2 7 -7 16 -10 8 -3 12 -2 9 4 -6 10 -25 14 -25 6z"/>
<path d="M1257 1219 c7 -7 15 -10 18 -7 3 3 -2 9 -12 12 -14 6 -15 5 -6 -5z"/>
<path d="M2370 1124 c0 -8 5 -12 10 -9 6 3 10 10 10 16 0 5 -4 9 -10 9 -5 0
-10 -7 -10 -16z"/>
<path d="M650 747 c0 -2 6 -10 14 -16 11 -9 16 -9 22 1 4 7 4 10 -1 6 -4 -4
-14 -3 -22 3 -7 6 -13 9 -13 6z"/>
<path d="M636 713 c-3 -3 -6 -17 -6 -30 0 -21 4 -24 28 -22 15 2 34 -1 42 -6
10 -5 8 -1 -3 13 -11 12 -16 26 -11 34 4 7 4 10 -1 6 -4 -4 -15 -3 -25 2 -10
5 -20 6 -24 3z"/>
<path d="M696 691 c-3 -5 0 -11 7 -14 8 -3 14 1 14 9 0 16 -13 19 -21 5z"/>
<path d="M635 560 c-3 -5 -1 -10 4 -10 6 0 11 5 11 10 0 6 -2 10 -4 10 -3 0
-8 -4 -11 -10z"/>
<path d="M653 505 c0 -8 4 -12 9 -9 5 3 6 10 3 15 -9 13 -12 11 -12 -6z"/>
<path d="M1366 488 c3 -5 10 -6 15 -3 13 9 11 12 -6 12 -8 0 -12 -4 -9 -9z"/>
<path d="M1870 275 c-10 -12 -10 -15 2 -15 8 0 15 7 15 15 0 8 -1 15 -2 15 -2
0 -8 -7 -15 -15z"/>
<path d="M1013 222 c8 -12 -2 -44 -12 -37 -4 2 -8 -2 -8 -8 0 -7 11 -13 24
-13 24 0 30 10 13 21 -5 3 -7 12 -4 19 3 8 0 17 -7 22 -7 4 -10 3 -6 -4z"/>
<path d="M1039 205 c-3 -5 0 -21 7 -35 11 -19 14 -21 14 -7 0 10 4 16 9 13 11
-7 8 21 -4 31 -4 4 -5 3 -1 -4 3 -6 2 -14 -3 -17 -5 -4 -11 2 -13 11 -2 10 -6
14 -9 8z"/>
<path d="M875 192 c3 -3 0 -11 -6 -18 -7 -9 -6 -12 7 -10 21 3 28 33 8 33 -8
0 -12 -3 -9 -5z"/>
<path d="M835 130 c-3 -5 -1 -10 4 -10 6 0 11 5 11 10 0 6 -2 10 -4 10 -3 0
-8 -4 -11 -10z"/>
<path d="M1540 51 c0 -5 7 -12 16 -15 14 -5 15 -4 4 9 -14 17 -20 19 -20 6z"/>
</g>
</svg>
